<svg id="Слой_1" data-name="Слой 1" xmlns="http://www.w3.org/2000/svg" viewBox="0 0 599.03 43.92">
<defs>
<style>.cls-1{fill:#8683f8;}</style>
</defs>
<path class="cls-1" d="M731.79,555.38a27.26,27.26,0,0,1-8.13-3.15l4.56-10.32a29.08,29.08,0,0,0,6.72,2.79,26.27,26.27,0,0,0,7.14,1,11.07,11.07,0,0,0,4.2-.57,1.83,1.83,0,0,0,1.26-1.71q0-1.32-1.65-2a35.48,35.48,0,0,0-5.43-1.44,61.58,61.58,0,0,1-8.1-2.19,13.8,13.8,0,0,1-5.64-3.84,10.41,10.41,0,0,1-2.4-7.23,12.45,12.45,0,0,1,2.22-7.2,14.67,14.67,0,0,1,6.63-5.1,27.54,27.54,0,0,1,10.71-1.86,38.88,38.88,0,0,1,8.49.93,26.6,26.6,0,0,1,7.35,2.73l-4.26,10.26a26,26,0,0,0-11.7-3.12q-5.46,0-5.46,2.64,0,1.26,1.62,1.89a34.31,34.31,0,0,0,5.34,1.35,54.91,54.91,0,0,1,8.1,2.07,14.09,14.09,0,0,1,5.73,3.81,10.22,10.22,0,0,1,2.43,7.2,12.32,12.32,0,0,1-2.22,7.17,14.94,14.94,0,0,1-6.63,5.1A27.15,27.15,0,0,1,742,556.55,44.06,44.06,0,0,1,731.79,555.38Z" transform="translate(-723.66 -512.63)"/>
<path class="cls-1" d="M775.56,553.73a21.53,21.53,0,0,1,0-38.28,27.71,27.71,0,0,1,24.36,0,21.53,21.53,0,0,1,0,38.28,27.71,27.71,0,0,1-24.36,0Zm17-9.93a9.24,9.24,0,0,0,3.39-3.66,12.85,12.85,0,0,0,0-11.1,9.24,9.24,0,0,0-3.39-3.66,9.46,9.46,0,0,0-9.54,0,9.24,9.24,0,0,0-3.39,3.66,12.85,12.85,0,0,0,0,11.1A9.24,9.24,0,0,0,783,543.8a9.46,9.46,0,0,0,9.54,0Z" transform="translate(-723.66 -512.63)"/>
<path class="cls-1" d="M826.32,553.76A20.86,20.86,0,0,1,818,546a22.85,22.85,0,0,1,0-22.74,20.86,20.86,0,0,1,8.37-7.8,25.52,25.52,0,0,1,12-2.79,26.34,26.34,0,0,1,10.92,2.16,20.27,20.27,0,0,1,7.92,6.24l-8.94,8q-3.9-4.92-9.18-4.92a9.38,9.38,0,0,0-7.14,2.85,12.19,12.19,0,0,0,0,15.3,9.38,9.38,0,0,0,7.14,2.85q5.28,0,9.18-4.92l8.94,8a20.27,20.27,0,0,1-7.92,6.24,26.34,26.34,0,0,1-10.92,2.16A25.52,25.52,0,0,1,826.32,553.76Z" transform="translate(-723.66 -512.63)"/>
<path class="cls-1" d="M861.24,513.59H875.4v42H861.24Z" transform="translate(-723.66 -512.63)"/>
<path class="cls-1" d="M910.86,548.27h-16l-2.82,7.32h-14.4l18.36-42H910l18.36,42H913.68Zm-3.9-10.2-4.08-10.56-4.08,10.56Z" transform="translate(-723.66 -512.63)"/>
<path class="cls-1" d="M930.6,513.59h14.16v31h19v11H930.6Z" transform="translate(-723.66 -512.63)"/>
<path d="M1027,513.59v42h-11.64l-16-19.08v19.08h-13.8v-42h11.64l16,19.08V513.59Z" transform="translate(-723.66 -512.63)"/>
<path d="M1068.78,544.91v10.68h-34.92v-42H1068v10.68h-20.22v4.92h17.76v10.2h-17.76v5.52Z" transform="translate(-723.66 -512.63)"/>
<path d="M1083.36,524.57h-12.3v-11h38.76v11h-12.3v31h-14.16Z" transform="translate(-723.66 -512.63)"/>
<path d="M1180.62,513.59l-13.44,42H1152l-6.78-22.44-7.14,22.44H1122.9l-13.44-42H1124l7.32,23.88,7.74-23.88h13l7.32,24.18,7.74-24.18Z" transform="translate(-723.66 -512.63)"/>
<path d="M1193,553.73a21.53,21.53,0,0,1,0-38.28,27.71,27.71,0,0,1,24.36,0,21.53,21.53,0,0,1,0,38.28,27.71,27.71,0,0,1-24.36,0Zm17-9.93a9.31,9.31,0,0,0,3.39-3.66,12.85,12.85,0,0,0,0-11.1,9.31,9.31,0,0,0-3.39-3.66,9.46,9.46,0,0,0-9.54,0A9.24,9.24,0,0,0,1197,529a12.85,12.85,0,0,0,0,11.1,9.24,9.24,0,0,0,3.39,3.66,9.46,9.46,0,0,0,9.54,0Z" transform="translate(-723.66 -512.63)"/>
<path d="M1252,545h-3.84v10.56H1234v-42h20.22a24.79,24.79,0,0,1,10.14,1.92,15.52,15.52,0,0,1,7,21.78,14.47,14.47,0,0,1-5.88,5.34l8.82,13h-15.12Zm5.64-19.23a6.3,6.3,0,0,0-4.32-1.29h-5.16v9.84h5.16a6.3,6.3,0,0,0,4.32-1.29,5.3,5.3,0,0,0,0-7.26Z" transform="translate(-723.66 -512.63)"/>
<path d="M1295.81,541.67l-3.18,3.54v10.38h-13.92v-42h13.92v15.24l13.8-15.24h15.42l-16.8,18.48,17.65,23.52h-16.39Z" transform="translate(-723.66 -512.63)"/>
</svg>